<?xml version="1.0" encoding="UTF-8" standalone="no"?>
<svg
   xmlns:dc="http://purl.org/dc/elements/1.1/"
   xmlns:cc="http://creativecommons.org/ns#"
   xmlns:rdf="http://www.w3.org/1999/02/22-rdf-syntax-ns#"
   xmlns:svg="http://www.w3.org/2000/svg"
   xmlns="http://www.w3.org/2000/svg"
   xmlns:sodipodi="http://sodipodi.sourceforge.net/DTD/sodipodi-0.dtd"
   xmlns:inkscape="http://www.inkscape.org/namespaces/inkscape"
   inkscape:version="1.0 (4035a4f, 2020-05-01)"
   sodipodi:docname="computer-edited.svg"
   xml:space="preserve"
   style="enable-background:new 0 0 512 512;"
   viewBox="0 0 512 450"
   y="0px"
   x="0px"
   id="Layer_1"
   version="1.1"><metadata
   id="metadata147"><rdf:RDF><cc:Work
       rdf:about=""><dc:format>image/svg+xml</dc:format><dc:type
         rdf:resource="http://purl.org/dc/dcmitype/StillImage" /><dc:title></dc:title></cc:Work></rdf:RDF></metadata><defs
   id="defs145">
</defs><sodipodi:namedview
   inkscape:current-layer="Layer_1"
   inkscape:window-maximized="1"
   inkscape:window-y="23"
   inkscape:window-x="1440"
   inkscape:cy="202.15159"
   inkscape:cx="164.8565"
   inkscape:zoom="1.4866667"
   showgrid="false"
   id="namedview143"
   inkscape:window-height="1035"
   inkscape:window-width="1920"
   inkscape:pageshadow="2"
   inkscape:pageopacity="0"
   guidetolerance="10"
   gridtolerance="10"
   objecttolerance="10"
   borderopacity="1"
   bordercolor="#666666"
   pagecolor="#ffffff" />
<!-- <ellipse style="fill:#EDB937;" cx="256" cy="421.646" rx="182.284" ry="14.371"/> -->
<path
   id="path10"
   d="M65.982,67.223h380.037c12.486,0,22.702,10.216,22.702,22.702v234.107H43.282V89.924  c0-12.486,10.216-22.702,22.702-22.702H65.982z"
   style="fill:#666666;" />
<path
   style="fill:#ffffff"
   d="M 58.694,308.617 H 453.303 V 89.924 c 0,-3.979 -3.309,-7.288 -7.285,-7.288 H 65.982 c -3.977,0 -7.285,3.309 -7.285,7.288 v 218.693 z"
   id="path12" /><path
   style="fill:#ffffff"
   d="m 468.718,324.031 v 24.827 c 0,12.488 -11.26,22.702 -25.024,22.702 H 68.307 c -13.764,0 -25.024,-10.214 -25.024,-22.702 V 324.031 H 468.72 Z"
   id="path14" />
<circle
   id="circle18"
   r="7.816"
   cy="346.803"
   cx="256"
   style="fill:#B6B6B8;" />
<path
   id="path20"
   d="M305.066,407.273l36.095,11.566H170.836l29.123-11.566v-35.713h105.105v35.713H305.066z"
   style="fill:#C2C2C4;" />
<path
   id="path22"
   d="M199.961,407.273h105.106l36.095,11.566v4.98h-85.16h-85.164v-4.98L199.961,407.273z"
   style="fill:#ECF0F1;" />
<path
   id="path24"
   d="M199.961,371.559h105.106v35.713L199.961,371.559z"
   style="fill:#919191;" />
<g
   id="g96">
	<rect
   id="rect92"
   height="8.416"
   width="2.807"
   style="fill:#FFFFFF;"
   y="216.577"
   x="120.375" />
	<rect
   id="rect94"
   height="8.416"
   width="2.807"
   style="fill:#FFFFFF;"
   y="244.183"
   x="193.193" />
</g>

<g
   id="g112">
</g>
<g
   id="g114">
</g>
<g
   id="g116">
</g>
<g
   id="g118">
</g>
<g
   id="g120">
</g>
<g
   id="g122">
</g>
<g
   id="g124">
</g>
<g
   id="g126">
</g>
<g
   id="g128">
</g>
<g
   id="g130">
</g>
<g
   id="g132">
</g>
<g
   id="g134">
</g>
<g
   id="g136">
</g>
<g
   id="g138">
</g>
<g
   id="g140">
</g>
<path
   d="m 451.5187,85.771301 c -0.40105,-0.37443 -0.68853,-0.85733 -1.16018,-1.14453 -1.10132,-0.67064 -2.31546,-1.16211 -3.68008,-1.16211 H 65.994555 c -3.983769,0 -7.297555,3.30811 -7.297555,7.28711 V 308.617 Z"
   style="fill:#ecf0f1;fill-opacity:1;stroke-width:1.00085"
   id="path12-1" /><path
   d="M 451.5187,85.771301 58.697,308.617 v 0.82813 H 453.976 V 90.751771 c 0,-2.03183 -1.06164,-3.67743 -2.4573,-4.98047 z"
   style="fill:#dce3db;fill-opacity:1;stroke-width:1.00085"
   id="path252" /></svg>
